<svg id="visual" viewBox="0 0 900 600" width="900" height="600" xmlns="http://www.w3.org/2000/svg" xmlns:xlink="http://www.w3.org/1999/xlink" version="1.1"><rect x="0" y="0" width="900" height="600" fill="#1c1c1c"></rect><defs><linearGradient id="grad1_0" x1="33.3%" y1="0%" x2="100%" y2="100%"><stop offset="20%" stop-color="#1c1c1c" stop-opacity="1"></stop><stop offset="80%" stop-color="#1c1c1c" stop-opacity="1"></stop></linearGradient></defs><defs><linearGradient id="grad2_0" x1="0%" y1="0%" x2="66.7%" y2="100%"><stop offset="20%" stop-color="#1c1c1c" stop-opacity="1"></stop><stop offset="80%" stop-color="#1c1c1c" stop-opacity="1"></stop></linearGradient></defs><g transform="translate(900, 0)"><path d="M0 297.5C-41.2 290.7 -82.4 284 -107.9 260.5C-133.4 237.1 -143.2 196.8 -172.5 172.5C-201.9 148.3 -250.7 139.9 -274.8 113.8C-298.9 87.7 -298.2 43.9 -297.5 0L0 0Z" fill="#fd6027"></path></g><g transform="translate(0, 600)"><path d="M0 -297.5C30.4 -272.4 60.8 -247.4 98 -236.5C135.1 -225.6 179.1 -228.8 210.3 -210.3C241.6 -191.8 260.1 -151.6 272.5 -112.9C284.9 -74.2 291.2 -37.1 297.5 0L0 0Z" fill="#fd6027"></path></g></svg>